<mxfile host="Electron" modified="2023-11-22T21:01:47.886Z" agent="Mozilla/5.0 (Windows NT 10.0; Win64; x64) AppleWebKit/537.36 (KHTML, like Gecko) draw.io/22.0.3 Chrome/114.0.5735.289 Electron/25.8.4 Safari/537.36" etag="XFZ_uzfd8Wuy4Ed08dLj" version="22.0.3" type="device">
  <diagram name="Page-1" id="93l5voXy5tmKnU4gqsiP">
    <mxGraphModel dx="792" dy="1180" grid="1" gridSize="10" guides="1" tooltips="1" connect="1" arrows="1" fold="1" page="1" pageScale="1" pageWidth="850" pageHeight="1100" math="0" shadow="0">
      <root>
        <mxCell id="0" />
        <mxCell id="1" parent="0" />
        <mxCell id="2jNAxMulRYA06e51K-HF-5" style="edgeStyle=orthogonalEdgeStyle;rounded=0;orthogonalLoop=1;jettySize=auto;html=1;entryX=0.25;entryY=0;entryDx=0;entryDy=0;" edge="1" parent="1" source="4QM_SH4c7OSgnXp-taPd-9" target="4QM_SH4c7OSgnXp-taPd-22">
          <mxGeometry relative="1" as="geometry" />
        </mxCell>
        <mxCell id="4QM_SH4c7OSgnXp-taPd-9" value="DateDimension" style="swimlane;childLayout=stackLayout;horizontal=1;startSize=50;horizontalStack=0;rounded=1;fontSize=14;fontStyle=0;strokeWidth=2;resizeParent=0;resizeLast=1;shadow=0;dashed=0;align=center;arcSize=4;whiteSpace=wrap;html=1;" parent="1" vertex="1">
          <mxGeometry x="80" y="520" width="160" height="150" as="geometry" />
        </mxCell>
        <mxCell id="4QM_SH4c7OSgnXp-taPd-10" value="*DateId&lt;br&gt;Day&lt;br&gt;Month&lt;br&gt;Year&lt;br&gt;DayOfWeek" style="align=left;strokeColor=none;fillColor=none;spacingLeft=4;fontSize=12;verticalAlign=top;resizable=0;rotatable=0;part=1;html=1;" parent="4QM_SH4c7OSgnXp-taPd-9" vertex="1">
          <mxGeometry y="50" width="160" height="100" as="geometry" />
        </mxCell>
        <mxCell id="4QM_SH4c7OSgnXp-taPd-11" value="BookDimension" style="swimlane;childLayout=stackLayout;horizontal=1;startSize=50;horizontalStack=0;rounded=1;fontSize=14;fontStyle=0;strokeWidth=2;resizeParent=0;resizeLast=1;shadow=0;dashed=0;align=center;arcSize=4;whiteSpace=wrap;html=1;" parent="1" vertex="1">
          <mxGeometry x="600" y="440" width="160" height="170" as="geometry" />
        </mxCell>
        <mxCell id="4QM_SH4c7OSgnXp-taPd-12" value="*BookId&lt;br&gt;**AuthorId&lt;br&gt;ISBN&lt;br&gt;Title&lt;br&gt;Category&lt;br&gt;Description&lt;br&gt;Language" style="align=left;strokeColor=none;fillColor=none;spacingLeft=4;fontSize=12;verticalAlign=top;resizable=0;rotatable=0;part=1;html=1;" parent="4QM_SH4c7OSgnXp-taPd-11" vertex="1">
          <mxGeometry y="50" width="160" height="120" as="geometry" />
        </mxCell>
        <mxCell id="4QM_SH4c7OSgnXp-taPd-14" value="NarratorDimension" style="swimlane;childLayout=stackLayout;horizontal=1;startSize=50;horizontalStack=0;rounded=1;fontSize=14;fontStyle=0;strokeWidth=2;resizeParent=0;resizeLast=1;shadow=0;dashed=0;align=center;arcSize=4;whiteSpace=wrap;html=1;" parent="1" vertex="1">
          <mxGeometry x="100" y="720" width="160" height="160" as="geometry" />
        </mxCell>
        <mxCell id="4QM_SH4c7OSgnXp-taPd-15" value="*NarratorId&lt;br&gt;FirstName&lt;br&gt;LastName&lt;br&gt;Nationality&lt;br&gt;Bio&lt;br&gt;Gender" style="align=left;strokeColor=none;fillColor=none;spacingLeft=4;fontSize=12;verticalAlign=top;resizable=0;rotatable=0;part=1;html=1;" parent="4QM_SH4c7OSgnXp-taPd-14" vertex="1">
          <mxGeometry y="50" width="160" height="110" as="geometry" />
        </mxCell>
        <mxCell id="2jNAxMulRYA06e51K-HF-13" style="edgeStyle=orthogonalEdgeStyle;rounded=0;orthogonalLoop=1;jettySize=auto;html=1;entryX=0.5;entryY=0;entryDx=0;entryDy=0;" edge="1" parent="1" source="4QM_SH4c7OSgnXp-taPd-16" target="4QM_SH4c7OSgnXp-taPd-18">
          <mxGeometry relative="1" as="geometry" />
        </mxCell>
        <mxCell id="4QM_SH4c7OSgnXp-taPd-16" value="SubscribtionDimension" style="swimlane;childLayout=stackLayout;horizontal=1;startSize=50;horizontalStack=0;rounded=1;fontSize=14;fontStyle=0;strokeWidth=2;resizeParent=0;resizeLast=1;shadow=0;dashed=0;align=center;arcSize=4;whiteSpace=wrap;html=1;" parent="1" vertex="1">
          <mxGeometry x="380" y="230" width="160" height="140" as="geometry" />
        </mxCell>
        <mxCell id="4QM_SH4c7OSgnXp-taPd-17" value="*SubscriptionId&lt;br&gt;SubscriptionType&lt;br&gt;SubscriptionPlan&lt;br&gt;TimeInMonths&lt;br&gt;MaxProfiles" style="align=left;strokeColor=none;fillColor=none;spacingLeft=4;fontSize=12;verticalAlign=top;resizable=0;rotatable=0;part=1;html=1;" parent="4QM_SH4c7OSgnXp-taPd-16" vertex="1">
          <mxGeometry y="50" width="160" height="90" as="geometry" />
        </mxCell>
        <mxCell id="2jNAxMulRYA06e51K-HF-4" style="edgeStyle=orthogonalEdgeStyle;rounded=0;orthogonalLoop=1;jettySize=auto;html=1;entryX=0.5;entryY=0;entryDx=0;entryDy=0;" edge="1" parent="1" source="4QM_SH4c7OSgnXp-taPd-18" target="4QM_SH4c7OSgnXp-taPd-22">
          <mxGeometry relative="1" as="geometry" />
        </mxCell>
        <mxCell id="4QM_SH4c7OSgnXp-taPd-18" value="UserDimension" style="swimlane;childLayout=stackLayout;horizontal=1;startSize=50;horizontalStack=0;rounded=1;fontSize=14;fontStyle=0;strokeWidth=2;resizeParent=0;resizeLast=1;shadow=0;dashed=0;align=center;arcSize=4;whiteSpace=wrap;html=1;" parent="1" vertex="1">
          <mxGeometry x="70" y="320" width="160" height="140" as="geometry" />
        </mxCell>
        <mxCell id="4QM_SH4c7OSgnXp-taPd-19" value="*UserId&lt;br&gt;**SubscriptionId&lt;br&gt;Name&lt;br&gt;Username&lt;br&gt;Email&lt;br&gt;PhoneNumber" style="align=left;strokeColor=none;fillColor=none;spacingLeft=4;fontSize=12;verticalAlign=top;resizable=0;rotatable=0;part=1;html=1;" parent="4QM_SH4c7OSgnXp-taPd-18" vertex="1">
          <mxGeometry y="50" width="160" height="90" as="geometry" />
        </mxCell>
        <mxCell id="4QM_SH4c7OSgnXp-taPd-20" value="Author" style="swimlane;childLayout=stackLayout;horizontal=1;startSize=50;horizontalStack=0;rounded=1;fontSize=14;fontStyle=0;strokeWidth=2;resizeParent=0;resizeLast=1;shadow=0;dashed=0;align=center;arcSize=4;whiteSpace=wrap;html=1;" parent="1" vertex="1">
          <mxGeometry x="585" y="250" width="160" height="130" as="geometry" />
        </mxCell>
        <mxCell id="4QM_SH4c7OSgnXp-taPd-21" value="*AuthorId&lt;br&gt;Name&lt;br&gt;Nationality&lt;br&gt;ShortBiography&lt;br&gt;Gender" style="align=left;strokeColor=none;fillColor=none;spacingLeft=4;fontSize=12;verticalAlign=top;resizable=0;rotatable=0;part=1;html=1;" parent="4QM_SH4c7OSgnXp-taPd-20" vertex="1">
          <mxGeometry y="50" width="160" height="80" as="geometry" />
        </mxCell>
        <mxCell id="4QM_SH4c7OSgnXp-taPd-22" value="ReviewFact" style="swimlane;childLayout=stackLayout;horizontal=1;startSize=50;horizontalStack=0;rounded=1;fontSize=14;fontStyle=0;strokeWidth=2;resizeParent=0;resizeLast=1;shadow=0;dashed=0;align=center;arcSize=4;whiteSpace=wrap;html=1;" parent="1" vertex="1">
          <mxGeometry x="330" y="470" width="170" height="160" as="geometry" />
        </mxCell>
        <mxCell id="4QM_SH4c7OSgnXp-taPd-23" value="*ReviewId&lt;br&gt;**UserId&lt;br&gt;**BookId&lt;br&gt;**DateId&lt;br&gt;ReviewCount&lt;br&gt;ReviewStars&lt;br&gt;ReviewLikes&lt;br&gt;" style="align=left;strokeColor=none;fillColor=none;spacingLeft=4;fontSize=12;verticalAlign=top;resizable=0;rotatable=0;part=1;html=1;" parent="4QM_SH4c7OSgnXp-taPd-22" vertex="1">
          <mxGeometry y="50" width="170" height="110" as="geometry" />
        </mxCell>
        <mxCell id="4QM_SH4c7OSgnXp-taPd-24" value="AudioTrackFact" style="swimlane;childLayout=stackLayout;horizontal=1;startSize=50;horizontalStack=0;rounded=1;fontSize=14;fontStyle=0;strokeWidth=2;resizeParent=0;resizeLast=1;shadow=0;dashed=0;align=center;arcSize=4;whiteSpace=wrap;html=1;" parent="1" vertex="1">
          <mxGeometry x="369" y="680" width="151" height="180" as="geometry" />
        </mxCell>
        <mxCell id="4QM_SH4c7OSgnXp-taPd-25" value="*AudioTrackId&lt;br&gt;**NarratorId&lt;br&gt;**BookId&lt;br&gt;**DateId&lt;br&gt;Language&lt;br&gt;Duration&lt;br&gt;AudioTrackLikes&lt;br&gt;AudioTrackListens&lt;br&gt;" style="align=left;strokeColor=none;fillColor=none;spacingLeft=4;fontSize=12;verticalAlign=top;resizable=0;rotatable=0;part=1;html=1;" parent="4QM_SH4c7OSgnXp-taPd-24" vertex="1">
          <mxGeometry y="50" width="151" height="130" as="geometry" />
        </mxCell>
        <mxCell id="2jNAxMulRYA06e51K-HF-2" style="edgeStyle=orthogonalEdgeStyle;rounded=0;orthogonalLoop=1;jettySize=auto;html=1;exitX=0.5;exitY=1;exitDx=0;exitDy=0;entryX=0.5;entryY=0;entryDx=0;entryDy=0;" edge="1" parent="1" source="4QM_SH4c7OSgnXp-taPd-21" target="4QM_SH4c7OSgnXp-taPd-11">
          <mxGeometry relative="1" as="geometry" />
        </mxCell>
        <mxCell id="2jNAxMulRYA06e51K-HF-6" style="edgeStyle=orthogonalEdgeStyle;rounded=0;orthogonalLoop=1;jettySize=auto;html=1;entryX=1;entryY=0.25;entryDx=0;entryDy=0;" edge="1" parent="1" source="4QM_SH4c7OSgnXp-taPd-11" target="4QM_SH4c7OSgnXp-taPd-23">
          <mxGeometry relative="1" as="geometry" />
        </mxCell>
        <mxCell id="2jNAxMulRYA06e51K-HF-10" style="edgeStyle=orthogonalEdgeStyle;rounded=0;orthogonalLoop=1;jettySize=auto;html=1;entryX=0;entryY=0.25;entryDx=0;entryDy=0;" edge="1" parent="1" source="4QM_SH4c7OSgnXp-taPd-10" target="4QM_SH4c7OSgnXp-taPd-24">
          <mxGeometry relative="1" as="geometry" />
        </mxCell>
        <mxCell id="2jNAxMulRYA06e51K-HF-11" style="edgeStyle=orthogonalEdgeStyle;rounded=0;orthogonalLoop=1;jettySize=auto;html=1;entryX=-0.065;entryY=0.356;entryDx=0;entryDy=0;entryPerimeter=0;" edge="1" parent="1" source="4QM_SH4c7OSgnXp-taPd-14" target="4QM_SH4c7OSgnXp-taPd-25">
          <mxGeometry relative="1" as="geometry" />
        </mxCell>
        <mxCell id="2jNAxMulRYA06e51K-HF-12" style="edgeStyle=orthogonalEdgeStyle;rounded=0;orthogonalLoop=1;jettySize=auto;html=1;entryX=1;entryY=0.25;entryDx=0;entryDy=0;" edge="1" parent="1" source="4QM_SH4c7OSgnXp-taPd-12" target="4QM_SH4c7OSgnXp-taPd-25">
          <mxGeometry relative="1" as="geometry" />
        </mxCell>
      </root>
    </mxGraphModel>
  </diagram>
</mxfile>
